<svg width="414" height="896" viewBox="0 0 414 896" fill="none" xmlns="http://www.w3.org/2000/svg">
<g clip-path="url(#clip0_639_128)">
<rect width="414" height="896" fill="#173F43"/>
<rect x="37" y="409" width="339" height="78" rx="39" fill="#659F9E"/>
<path d="M59 451.5L59.25 461.5C59.25 463.6 58.9667 465.45 58.4 467.05C57.8667 468.683 57.2 469.9 56.4 470.7C54.7667 472.4 53.3333 473.367 52.1 473.6L51.25 473.8C50.75 473.8 50.5 473.65 50.5 473.35L50.75 472.6C53.1833 469.233 54.4 460.967 54.4 447.8C54.4 446.6 54.3833 445.7 54.35 445.1C53.65 445.1 52.95 445.15 52.25 445.25H52.2C51.8333 445.25 51.65 445.067 51.65 444.7L51.8 442.8C51.8333 442.5 52.0667 442.35 52.5 442.35H54.3V439L54.4 434.25C54.4 434.017 54.4333 433.767 54.5 433.5C54.6 433.2 54.9667 432.767 55.6 432.2C56.2333 431.6 57.1667 431.067 58.4 430.6C59.6333 430.1 60.6833 429.85 61.55 429.85C62.45 429.85 62.9 430.117 62.9 430.65C62.9 430.85 62.75 431.017 62.45 431.15C61.4833 431.45 60.6833 432.317 60.05 433.75C59.45 435.15 59.15 437.55 59.15 440.95V442.35C60.85 442.283 61.9667 442.2 62.5 442.1C62.7333 442.1 62.85 442.3 62.85 442.7C62.85 443.1 62.6667 443.6 62.3 444.2C61.9667 444.767 61.5333 445.067 61 445.1C60.5 445.1 59.8667 445.083 59.1 445.05C59.0333 447.583 59 449.733 59 451.5ZM71.3105 435.4L71.0105 453.75C71.0105 459.483 71.1939 462.917 71.5605 464.05C71.6605 464.25 71.7105 464.45 71.7105 464.65C71.7105 465.05 71.2272 465.25 70.2605 465.25C69.2939 465.25 68.2105 465 67.0105 464.5C65.8439 464.033 65.2605 463.417 65.2605 462.65C65.9272 457.983 66.2605 451.75 66.2605 443.95L66.0605 436.3C65.9939 435.367 65.7939 434.567 65.4605 433.9C65.1605 433.233 64.8605 432.8 64.5605 432.6L64.1605 432.35C63.9272 432.217 63.8105 432.067 63.8105 431.9C63.8105 431.433 64.5272 430.867 65.9605 430.2C67.4272 429.5 68.8439 429.15 70.2105 429.15C70.7439 429.15 71.0439 429.333 71.1105 429.7C71.2439 430.567 71.3105 432.467 71.3105 435.4ZM79.8668 437.25L78.6668 437.2C77.7668 437.2 77.1835 437.417 76.9168 437.85C76.8501 437.95 76.7668 438 76.6668 438C76.2335 438 76.0168 437.267 76.0168 435.8C76.0168 434.3 76.2335 433.35 76.6668 432.95C77.1335 432.55 77.9168 432.35 79.0168 432.35C80.1501 432.35 80.9168 432.55 81.3168 432.95C81.7168 433.317 81.9168 433.95 81.9168 434.85C81.9168 435.75 81.7668 436.383 81.4668 436.75C81.1668 437.083 80.6335 437.25 79.8668 437.25ZM75.8668 462.5L76.4168 450.85C76.4168 448.083 76.1001 446.2 75.4668 445.2C75.2668 444.867 75.0335 444.617 74.7668 444.45C74.5668 444.383 74.4668 444.25 74.4668 444.05C74.4668 443.45 75.3168 442.867 77.0168 442.3C78.7168 441.733 79.9501 441.45 80.7168 441.45C81.5168 441.45 81.9335 441.65 81.9668 442.05C81.9668 442.717 81.8668 444.617 81.6668 447.75C81.5001 450.85 81.4168 454.117 81.4168 457.55C81.4168 460.983 81.6168 463.117 82.0168 463.95C82.1168 464.117 82.1668 464.283 82.1668 464.45C82.1668 464.883 81.5335 465.1 80.2668 465.1C79.0001 465.1 77.7001 464.767 76.3668 464.1C76.0335 463.933 75.8668 463.4 75.8668 462.5ZM85.7148 456.35C85.7815 452.983 85.8148 450.217 85.8148 448.05C85.8148 445.883 85.6648 443.817 85.3648 441.85C85.3648 441.517 85.6982 441.35 86.3648 441.35C87.0315 441.35 87.5982 441.433 88.0648 441.6C88.5648 441.767 88.9148 441.95 89.1148 442.15C89.6482 442.683 89.9482 442.95 90.0148 442.95C90.1148 442.95 90.3815 442.8 90.8148 442.5C92.1148 441.667 93.5482 441.25 95.1148 441.25C96.7148 441.25 98.0982 441.65 99.2648 442.45C100.465 443.25 101.315 444.3 101.815 445.6C102.715 447.833 103.165 450.2 103.165 452.7C103.165 455.167 102.715 457.633 101.815 460.1C101.315 461.433 100.582 462.533 99.6148 463.4C98.6482 464.233 97.5148 464.65 96.2148 464.65C93.6482 464.65 92.3648 463.167 92.3648 460.2C92.3648 459.4 92.5315 459 92.8648 459C92.9315 459 93.1148 459.083 93.4148 459.25C93.7482 459.383 94.0648 459.45 94.3648 459.45C96.7315 459.45 97.9148 456.95 97.9148 451.95C97.9148 446.917 96.6482 444.4 94.1148 444.4C93.4148 444.4 92.8148 444.567 92.3148 444.9C91.8482 445.2 91.5482 445.5 91.4148 445.8L91.2148 446.3C90.7482 449.3 90.5148 455.083 90.5148 463.65C90.5148 467.517 90.5815 470.283 90.7148 471.95C90.8815 473.65 90.9648 474.667 90.9648 475C90.9648 475.333 90.8648 475.633 90.6648 475.9C89.9982 476.767 89.0982 477.533 87.9648 478.2C86.8315 478.9 85.8315 479.25 84.9648 479.25C84.6315 479.25 84.4648 479.033 84.4648 478.6C84.9982 475.233 85.4148 467.817 85.7148 456.35ZM113.859 444.5L114.009 442.5C114.043 442.2 114.276 442.05 114.709 442.05H116.459L116.259 438.05V437.85C116.259 437.083 116.843 436.35 118.009 435.65C119.176 434.95 120.243 434.6 121.209 434.6C121.509 434.6 121.659 434.733 121.659 435V435.05C121.526 435.95 121.393 438.267 121.259 442C122.726 442 123.659 441.967 124.059 441.9C124.459 441.833 124.676 441.8 124.709 441.8C124.943 441.8 125.059 442 125.059 442.4C125.059 442.8 124.876 443.317 124.509 443.95C124.143 444.55 123.743 444.867 123.309 444.9H121.209C121.176 446.033 121.159 447.95 121.159 450.65C121.159 453.317 121.176 455.517 121.209 457.25C121.276 458.983 121.343 460.3 121.409 461.2C121.476 462.067 121.543 462.767 121.609 463.3C121.709 463.833 121.776 464.217 121.809 464.45C121.876 464.683 121.909 464.833 121.909 464.9C121.909 465.233 121.693 465.417 121.259 465.45C119.959 465.45 118.659 465.267 117.359 464.9C116.093 464.533 115.459 463.9 115.459 463C116.159 457.4 116.509 451.383 116.509 444.95C115.609 444.95 114.926 444.983 114.459 445.05H114.409C114.109 445.05 113.926 444.867 113.859 444.5ZM132.241 437.15L132.191 442C132.191 442.2 132.258 442.3 132.391 442.3C132.524 442.3 132.658 442.25 132.791 442.15C133.624 441.583 134.941 441.3 136.741 441.3C139.774 441.3 141.874 442.333 143.041 444.4C143.474 445.167 143.691 446.183 143.691 447.45C143.691 448.717 143.608 450.467 143.441 452.7C143.308 454.933 143.241 456.517 143.241 457.45C143.241 460.717 143.708 462.883 144.641 463.95C144.808 464.117 144.891 464.283 144.891 464.45C144.891 464.783 144.174 464.95 142.741 464.95C138.874 464.95 136.941 463.15 136.941 459.55C136.941 458.15 137.274 456.183 137.941 453.65C138.608 451.117 138.941 449.25 138.941 448.05C138.941 446.85 138.658 445.933 138.091 445.3C137.524 444.633 136.741 444.3 135.741 444.3C134.741 444.3 133.941 444.517 133.341 444.95C132.774 445.383 132.424 445.833 132.291 446.3L132.141 446.95C132.108 447.583 132.091 449.6 132.091 453C132.091 456.4 132.174 458.617 132.341 459.65C132.508 460.65 132.591 461.217 132.591 461.35C132.591 462.317 131.941 463.183 130.641 463.95C129.341 464.683 128.058 465.05 126.791 465.05C126.324 465.05 126.091 464.783 126.091 464.25L126.191 463.3C126.924 457.7 127.291 451.633 127.291 445.1C127.291 442.567 127.191 440 126.991 437.4L126.941 436.3C126.874 435.367 126.674 434.567 126.341 433.9C126.041 433.233 125.758 432.8 125.491 432.6L125.041 432.35C124.808 432.217 124.691 432.067 124.691 431.9C124.691 431.433 125.474 430.867 127.041 430.2C128.608 429.5 129.808 429.15 130.641 429.15C131.508 429.15 131.974 429.333 132.041 429.7C132.174 431.4 132.241 433.883 132.241 437.15ZM151.146 451.3L151.196 452.55C151.196 452.75 151.33 452.85 151.596 452.85C152.663 452.75 153.596 452.483 154.396 452.05C155.196 451.583 155.796 451.067 156.196 450.5C156.996 449.267 157.43 448.2 157.496 447.3L157.546 446.7C157.546 444.9 156.83 444 155.396 444C154.33 444 153.463 444.467 152.796 445.4C151.696 446.867 151.146 448.833 151.146 451.3ZM162.046 457.95C162.046 459.217 161.78 460.333 161.246 461.3C160.746 462.233 160.163 462.933 159.496 463.4C158.863 463.833 158.113 464.183 157.246 464.45C156.146 464.783 155.096 464.95 154.096 464.95C151.296 464.95 149.23 463.9 147.896 461.8C146.563 459.7 145.896 457.033 145.896 453.8C145.896 450.533 146.713 447.633 148.346 445.1C150.013 442.567 152.496 441.3 155.796 441.3C158.796 441.3 160.83 442.35 161.896 444.45C162.33 445.25 162.546 446.017 162.546 446.75C162.546 447.45 162.513 448.017 162.446 448.45C162.38 448.85 162.146 449.467 161.746 450.3C161.346 451.133 160.813 451.883 160.146 452.55C159.48 453.217 158.43 453.85 156.996 454.45C155.563 455.05 153.88 455.45 151.946 455.65C151.68 455.65 151.546 455.767 151.546 456C151.546 456.3 151.646 456.75 151.846 457.35C152.08 457.917 152.33 458.4 152.596 458.8C153.33 459.733 154.413 460.2 155.846 460.2C157.28 460.2 158.496 459.733 159.496 458.8C160.03 458.3 160.463 457.683 160.796 456.95C160.93 456.683 161.096 456.55 161.296 456.55C161.53 456.55 161.713 456.733 161.846 457.1C161.98 457.467 162.046 457.75 162.046 457.95ZM188.989 457.15C188.989 458.583 188.706 459.833 188.139 460.9C187.606 461.967 186.989 462.75 186.289 463.25C185.589 463.75 184.756 464.15 183.789 464.45C182.522 464.85 181.372 465.05 180.339 465.05C178.172 465.05 176.372 464.633 174.939 463.8C173.506 462.933 172.789 461.567 172.789 459.7C172.789 458.6 173.089 457.7 173.689 457C174.622 455.967 175.739 455.45 177.039 455.45C177.439 455.45 177.639 455.633 177.639 456C177.639 456.033 177.556 456.3 177.389 456.8C177.256 457.267 177.189 457.867 177.189 458.6C177.189 459.333 177.472 459.983 178.039 460.55C178.639 461.117 179.356 461.4 180.189 461.4C181.022 461.4 181.689 461.267 182.189 461C182.689 460.7 183.039 460.333 183.239 459.9C183.539 459.3 183.689 458.733 183.689 458.2C183.689 457.233 183.206 456.4 182.239 455.7C181.272 455 180.206 454.45 179.039 454.05C177.872 453.65 176.806 452.983 175.839 452.05C174.872 451.117 174.389 449.95 174.389 448.55C174.389 446.15 175.139 444.35 176.639 443.15C178.172 441.95 180.239 441.35 182.839 441.35C183.972 441.35 185.156 441.517 186.389 441.85C187.656 442.15 188.289 442.683 188.289 443.45C188.289 444.183 188.156 444.867 187.889 445.5C187.656 446.133 187.356 446.45 186.989 446.45C186.789 446.45 186.656 446.383 186.589 446.25C186.522 446.083 186.406 445.9 186.239 445.7C186.072 445.5 185.672 445.25 185.039 444.95C184.406 444.617 183.856 444.45 183.389 444.45C182.956 444.45 182.656 444.467 182.489 444.5C182.356 444.5 182.106 444.55 181.739 444.65C181.372 444.717 181.039 444.833 180.739 445C179.972 445.433 179.589 446.067 179.589 446.9C179.589 447.433 179.706 447.833 179.939 448.1C180.172 448.333 180.356 448.517 180.489 448.65C180.622 448.783 180.856 448.95 181.189 449.15C181.522 449.317 181.756 449.433 181.889 449.5C182.022 449.567 182.322 449.717 182.789 449.95C183.256 450.15 183.556 450.283 183.689 450.35C187.222 452.017 188.989 454.283 188.989 457.15ZM207.327 458.25C207.327 460.15 206.56 461.733 205.027 463C203.527 464.233 201.727 464.85 199.627 464.85C196.56 464.85 194.31 463.933 192.877 462.1C191.443 460.233 190.727 457.717 190.727 454.55C190.727 451.183 191.477 448.2 192.977 445.6C193.71 444.267 194.76 443.217 196.127 442.45C197.493 441.683 199.093 441.3 200.927 441.3C203.693 441.3 205.643 442.233 206.777 444.1C207.243 444.867 207.477 445.767 207.477 446.8C207.477 448.4 206.81 449.6 205.477 450.4C204.943 450.7 204.443 450.85 203.977 450.85C203.543 450.85 203.177 450.833 202.877 450.8C202.61 450.733 202.243 450.5 201.777 450.1C201.31 449.7 201.077 449.15 201.077 448.45C201.11 448.083 201.393 447.783 201.927 447.55C202.427 447.25 202.677 446.717 202.677 445.95C202.677 444.65 201.877 444 200.277 444C199.877 444 199.393 444.183 198.827 444.55C198.293 444.883 197.843 445.333 197.477 445.9C197.11 446.433 196.76 447.3 196.427 448.5C196.127 449.667 195.977 450.8 195.977 451.9C195.977 452.967 196.01 453.783 196.077 454.35C196.177 454.883 196.36 455.633 196.627 456.6C196.927 457.533 197.46 458.3 198.227 458.9C199.027 459.5 200.01 459.8 201.177 459.8C202.577 459.8 203.81 459.217 204.877 458.05C205.31 457.583 205.66 457.017 205.927 456.35C206.06 456.083 206.227 455.95 206.427 455.95C206.727 455.95 206.943 456.233 207.077 456.8C207.243 457.333 207.327 457.817 207.327 458.25ZM225.221 450.6L225.421 452.35C225.421 452.983 224.821 453.3 223.621 453.3C221.187 453.3 219.971 452.383 219.971 450.55C219.971 450.117 220.087 449.517 220.321 448.75C220.554 447.983 220.671 447.317 220.671 446.75C220.671 446.183 220.504 445.7 220.171 445.3C219.837 444.867 219.354 444.65 218.721 444.65C218.087 444.65 217.537 444.883 217.071 445.35C216.637 445.783 216.371 446.233 216.271 446.7L216.071 447.4C215.871 448.433 215.771 450.167 215.771 452.6C215.771 455 215.804 456.9 215.871 458.3C215.937 459.667 216.004 460.617 216.071 461.15C216.137 461.65 216.171 461.95 216.171 462.05C216.171 462.883 215.654 463.55 214.621 464.05C213.587 464.583 212.554 464.85 211.521 464.85C210.487 464.85 209.971 464.633 209.971 464.2L210.221 462.65C210.687 459.75 210.921 455.967 210.921 451.3C210.921 446.633 210.754 443.467 210.421 441.8C210.421 441.4 210.771 441.2 211.471 441.2C213.271 441.2 214.471 441.817 215.071 443.05C215.104 443.183 215.154 443.25 215.221 443.25C215.321 443.25 215.554 443.1 215.921 442.8C217.021 441.9 218.321 441.45 219.821 441.45C220.754 441.45 221.687 441.633 222.621 442C224.521 442.767 225.471 444.367 225.471 446.8L225.221 450.6ZM232.494 451.3L232.544 452.55C232.544 452.75 232.677 452.85 232.944 452.85C234.011 452.75 234.944 452.483 235.744 452.05C236.544 451.583 237.144 451.067 237.544 450.5C238.344 449.267 238.777 448.2 238.844 447.3L238.894 446.7C238.894 444.9 238.177 444 236.744 444C235.677 444 234.811 444.467 234.144 445.4C233.044 446.867 232.494 448.833 232.494 451.3ZM243.394 457.95C243.394 459.217 243.127 460.333 242.594 461.3C242.094 462.233 241.511 462.933 240.844 463.4C240.211 463.833 239.461 464.183 238.594 464.45C237.494 464.783 236.444 464.95 235.444 464.95C232.644 464.95 230.577 463.9 229.244 461.8C227.911 459.7 227.244 457.033 227.244 453.8C227.244 450.533 228.061 447.633 229.694 445.1C231.361 442.567 233.844 441.3 237.144 441.3C240.144 441.3 242.177 442.35 243.244 444.45C243.677 445.25 243.894 446.017 243.894 446.75C243.894 447.45 243.861 448.017 243.794 448.45C243.727 448.85 243.494 449.467 243.094 450.3C242.694 451.133 242.161 451.883 241.494 452.55C240.827 453.217 239.777 453.85 238.344 454.45C236.911 455.05 235.227 455.45 233.294 455.65C233.027 455.65 232.894 455.767 232.894 456C232.894 456.3 232.994 456.75 233.194 457.35C233.427 457.917 233.677 458.4 233.944 458.8C234.677 459.733 235.761 460.2 237.194 460.2C238.627 460.2 239.844 459.733 240.844 458.8C241.377 458.3 241.811 457.683 242.144 456.95C242.277 456.683 242.444 456.55 242.644 456.55C242.877 456.55 243.061 456.733 243.194 457.1C243.327 457.467 243.394 457.75 243.394 457.95ZM250.902 451.3L250.952 452.55C250.952 452.75 251.086 452.85 251.352 452.85C252.419 452.75 253.352 452.483 254.152 452.05C254.952 451.583 255.552 451.067 255.952 450.5C256.752 449.267 257.186 448.2 257.252 447.3L257.302 446.7C257.302 444.9 256.586 444 255.152 444C254.086 444 253.219 444.467 252.552 445.4C251.452 446.867 250.902 448.833 250.902 451.3ZM261.802 457.95C261.802 459.217 261.536 460.333 261.002 461.3C260.502 462.233 259.919 462.933 259.252 463.4C258.619 463.833 257.869 464.183 257.002 464.45C255.902 464.783 254.852 464.95 253.852 464.95C251.052 464.95 248.986 463.9 247.652 461.8C246.319 459.7 245.652 457.033 245.652 453.8C245.652 450.533 246.469 447.633 248.102 445.1C249.769 442.567 252.252 441.3 255.552 441.3C258.552 441.3 260.586 442.35 261.652 444.45C262.086 445.25 262.302 446.017 262.302 446.75C262.302 447.45 262.269 448.017 262.202 448.45C262.136 448.85 261.902 449.467 261.502 450.3C261.102 451.133 260.569 451.883 259.902 452.55C259.236 453.217 258.186 453.85 256.752 454.45C255.319 455.05 253.636 455.45 251.702 455.65C251.436 455.65 251.302 455.767 251.302 456C251.302 456.3 251.402 456.75 251.602 457.35C251.836 457.917 252.086 458.4 252.352 458.8C253.086 459.733 254.169 460.2 255.602 460.2C257.036 460.2 258.252 459.733 259.252 458.8C259.786 458.3 260.219 457.683 260.552 456.95C260.686 456.683 260.852 456.55 261.052 456.55C261.286 456.55 261.469 456.733 261.602 457.1C261.736 457.467 261.802 457.75 261.802 457.95ZM264.561 464.35C265.161 460.75 265.461 456.433 265.461 451.4C265.461 446.367 265.311 443.1 265.011 441.6C265.011 441.167 265.511 440.95 266.511 440.95C268.044 440.95 269.061 441.533 269.561 442.7C269.594 442.8 269.677 442.85 269.811 442.85C269.944 442.85 270.044 442.817 270.111 442.75C271.144 441.683 272.744 441.15 274.911 441.15C277.077 441.15 278.794 441.7 280.061 442.8C281.327 443.9 281.961 445.5 281.961 447.6C281.961 448.867 281.844 450.667 281.611 453C281.411 455.333 281.311 457.067 281.311 458.2C281.311 460.9 281.761 462.85 282.661 464.05C282.794 464.217 282.861 464.383 282.861 464.55C282.861 464.983 282.394 465.2 281.461 465.2C277.327 465.2 275.261 463.367 275.261 459.7C275.261 458.3 275.577 456.35 276.211 453.85C276.844 451.35 277.161 449.45 277.161 448.15C277.161 445.483 276.061 444.15 273.861 444.15C272.794 444.15 271.977 444.467 271.411 445.1C270.877 445.733 270.577 446.467 270.511 447.3C270.444 448.1 270.411 449.633 270.411 451.9C270.411 455.367 270.527 458.383 270.761 460.95L270.861 462.05C270.861 462.983 270.244 463.7 269.011 464.2C267.811 464.733 266.761 465 265.861 465C264.994 465 264.561 464.783 264.561 464.35ZM298.416 445.15C297.549 445.183 296.916 445.217 296.516 445.25C296.149 445.25 295.966 445.15 295.966 444.95C295.966 444.75 296.066 444.55 296.266 444.35C298.399 442.383 301.999 441.4 307.066 441.4C308.799 441.4 310.166 441.55 311.166 441.85L311.666 442C312.066 442.167 312.266 442.35 312.266 442.55C312.266 442.717 312.149 442.85 311.916 442.95C311.016 443.217 310.149 443.65 309.316 444.25C308.482 444.817 308.066 445.217 308.066 445.45L308.366 445.8C309.432 446.4 310.249 447.35 310.816 448.65C311.416 449.95 311.749 451.1 311.816 452.1L311.916 453.65C311.916 456.95 310.999 459.667 309.166 461.8C307.332 463.933 304.832 465 301.666 465C300.066 465 298.682 464.717 297.516 464.15C296.349 463.583 295.482 462.95 294.916 462.25C294.382 461.517 293.949 460.7 293.616 459.8C293.216 458.567 293.016 457.3 293.016 456C293.016 454.667 293.232 453.333 293.666 452C294.132 450.667 294.649 449.683 295.216 449.05C295.816 448.417 296.482 447.9 297.216 447.5C298.149 447 298.899 446.75 299.466 446.75C300.032 446.75 300.316 446.867 300.316 447.1L300.016 447.6C299.282 448.467 298.749 449.6 298.416 451C298.116 452.4 297.966 453.65 297.966 454.75C297.966 455.817 298.099 456.883 298.366 457.95C298.632 459.017 298.932 459.817 299.266 460.35C299.599 460.85 299.982 461.233 300.416 461.5C301.049 461.9 301.716 462.1 302.416 462.1C303.116 462.1 303.799 461.833 304.466 461.3C305.132 460.733 305.616 460 305.916 459.1C306.516 457.433 306.816 455.717 306.816 453.95C306.816 451.15 306.099 448.983 304.666 447.45C303.266 445.917 301.182 445.15 298.416 445.15ZM325.762 442.4C327.195 441.7 328.612 441.35 330.012 441.35C331.412 441.35 332.112 442.8 332.112 445.7C332.112 447.833 331.712 450 330.912 452.2C330.145 454.4 329.178 456.333 328.012 458C325.612 461.5 323.445 463.833 321.512 465C321.045 465.267 320.695 465.4 320.462 465.4C320.228 465.4 319.978 465.15 319.712 464.65C319.478 464.15 319.095 463.05 318.562 461.35C318.062 459.65 317.645 458.133 317.312 456.8L316.862 454.75C316.195 451.817 315.545 449.483 314.912 447.75C314.278 445.983 313.812 444.967 313.512 444.7L313.012 444.25C312.678 444.083 312.512 443.883 312.512 443.65L312.762 443.2C313.195 442.8 313.912 442.4 314.912 442C315.945 441.567 317.078 441.35 318.312 441.35C318.878 441.35 319.228 441.667 319.362 442.3C319.862 443.833 320.295 445.633 320.662 447.7C321.028 449.767 321.512 452.1 322.112 454.7C322.745 457.3 323.262 458.617 323.662 458.65C323.862 458.65 324.078 458.5 324.312 458.2C324.578 457.9 324.878 457.5 325.212 457C325.578 456.5 326.012 455.533 326.512 454.1C327.045 452.667 327.312 451.45 327.312 450.45C327.312 449.417 327.262 448.633 327.162 448.1C327.095 447.533 326.812 446.883 326.312 446.15C325.812 445.417 325.245 445 324.612 444.9C323.978 444.767 323.662 444.55 323.662 444.25C323.662 443.717 324.362 443.1 325.762 442.4ZM338.598 451.3L338.648 452.55C338.648 452.75 338.781 452.85 339.048 452.85C340.114 452.75 341.048 452.483 341.848 452.05C342.648 451.583 343.248 451.067 343.648 450.5C344.448 449.267 344.881 448.2 344.948 447.3L344.998 446.7C344.998 444.9 344.281 444 342.848 444C341.781 444 340.914 444.467 340.248 445.4C339.148 446.867 338.598 448.833 338.598 451.3ZM349.498 457.95C349.498 459.217 349.231 460.333 348.698 461.3C348.198 462.233 347.614 462.933 346.948 463.4C346.314 463.833 345.564 464.183 344.698 464.45C343.598 464.783 342.548 464.95 341.548 464.95C338.748 464.95 336.681 463.9 335.348 461.8C334.014 459.7 333.348 457.033 333.348 453.8C333.348 450.533 334.164 447.633 335.798 445.1C337.464 442.567 339.948 441.3 343.248 441.3C346.248 441.3 348.281 442.35 349.348 444.45C349.781 445.25 349.998 446.017 349.998 446.75C349.998 447.45 349.964 448.017 349.898 448.45C349.831 448.85 349.598 449.467 349.198 450.3C348.798 451.133 348.264 451.883 347.598 452.55C346.931 453.217 345.881 453.85 344.448 454.45C343.014 455.05 341.331 455.45 339.398 455.65C339.131 455.65 338.998 455.767 338.998 456C338.998 456.3 339.098 456.75 339.298 457.35C339.531 457.917 339.781 458.4 340.048 458.8C340.781 459.733 341.864 460.2 343.298 460.2C344.731 460.2 345.948 459.733 346.948 458.8C347.481 458.3 347.914 457.683 348.248 456.95C348.381 456.683 348.548 456.55 348.748 456.55C348.981 456.55 349.164 456.733 349.298 457.1C349.431 457.467 349.498 457.75 349.498 457.95ZM367.018 450.6L367.218 452.35C367.218 452.983 366.618 453.3 365.418 453.3C362.984 453.3 361.768 452.383 361.768 450.55C361.768 450.117 361.884 449.517 362.118 448.75C362.351 447.983 362.468 447.317 362.468 446.75C362.468 446.183 362.301 445.7 361.968 445.3C361.634 444.867 361.151 444.65 360.518 444.65C359.884 444.65 359.334 444.883 358.868 445.35C358.434 445.783 358.168 446.233 358.068 446.7L357.868 447.4C357.668 448.433 357.568 450.167 357.568 452.6C357.568 455 357.601 456.9 357.668 458.3C357.734 459.667 357.801 460.617 357.868 461.15C357.934 461.65 357.968 461.95 357.968 462.05C357.968 462.883 357.451 463.55 356.418 464.05C355.384 464.583 354.351 464.85 353.318 464.85C352.284 464.85 351.768 464.633 351.768 464.2L352.018 462.65C352.484 459.75 352.718 455.967 352.718 451.3C352.718 446.633 352.551 443.467 352.218 441.8C352.218 441.4 352.568 441.2 353.268 441.2C355.068 441.2 356.268 441.817 356.868 443.05C356.901 443.183 356.951 443.25 357.018 443.25C357.118 443.25 357.351 443.1 357.718 442.8C358.818 441.9 360.118 441.45 361.618 441.45C362.551 441.45 363.484 441.633 364.418 442C366.318 442.767 367.268 444.367 367.268 446.8L367.018 450.6Z" fill="white"/>
<rect width="414" height="896" fill="#384C69"/>
<rect x="80" y="415" width="254" height="65" fill="#384C69" stroke="white" stroke-width="6"/>
<path d="M92.8 457.325C92.1 457.325 91.75 456.925 91.75 456.125V445.325H104.4V456.125C104.4 456.925 104.05 457.325 103.35 457.325C102.65 457.325 102.3 456.925 102.3 456.125V447.425H93.85V456.125C93.85 456.925 93.5 457.325 92.8 457.325ZM114.012 457.15C112.412 457.15 111.137 457.008 110.187 456.725C109.245 456.433 108.566 455.954 108.15 455.287C107.741 454.612 107.537 453.7 107.537 452.55V449.925C107.537 448.775 107.741 447.867 108.15 447.2C108.566 446.525 109.245 446.046 110.187 445.762C111.137 445.471 112.412 445.325 114.012 445.325H114.737C116.337 445.325 117.608 445.471 118.55 445.762C119.491 446.054 120.166 446.537 120.575 447.212C120.983 447.879 121.187 448.783 121.187 449.925V451.275H109.637V452.475C109.637 453.208 109.737 453.762 109.937 454.137C110.145 454.504 110.562 454.75 111.187 454.875C111.812 454.992 112.754 455.05 114.012 455.05H117.862C118.254 455.05 118.512 454.979 118.637 454.837C118.77 454.696 118.837 454.417 118.837 454C118.837 453.583 118.929 453.258 119.112 453.025C119.304 452.792 119.566 452.675 119.9 452.675C120.241 452.683 120.5 452.812 120.675 453.062C120.85 453.304 120.937 453.65 120.937 454.1C120.937 454.792 120.833 455.367 120.625 455.825C120.416 456.275 120.095 456.608 119.662 456.825C119.237 457.042 118.695 457.15 118.037 457.15H114.012ZM109.65 449.175H119.075C118.983 448.442 118.687 447.975 118.187 447.775C117.887 447.658 117.441 447.571 116.85 447.512C116.266 447.454 115.562 447.425 114.737 447.425H114.012C113.112 447.425 112.366 447.458 111.775 447.525C111.191 447.583 110.762 447.675 110.487 447.8C109.987 448.008 109.708 448.467 109.65 449.175ZM125.196 461.7C124.513 461.7 124.171 461.275 124.171 460.425V446.35C124.171 445.55 124.53 445.15 125.246 445.15C125.621 445.15 125.88 445.267 126.021 445.5C126.171 445.733 126.246 446.133 126.246 446.7V447.45L125.871 446.95C126.396 446.375 127.059 445.962 127.859 445.712C128.667 445.454 129.596 445.325 130.646 445.325H131.371C132.971 445.325 134.242 445.471 135.184 445.762C136.125 446.054 136.8 446.537 137.209 447.212C137.617 447.879 137.821 448.783 137.821 449.925V452.55C137.821 453.692 137.617 454.6 137.209 455.275C136.8 455.942 136.13 456.421 135.196 456.712C134.271 457.004 133.021 457.15 131.446 457.15H126.271V460.425C126.271 461.275 125.913 461.7 125.196 461.7ZM126.271 455.05H131.446C132.68 455.05 133.6 454.992 134.209 454.875C134.817 454.75 135.221 454.504 135.421 454.137C135.621 453.762 135.721 453.208 135.721 452.475V450C135.721 449.258 135.617 448.704 135.409 448.337C135.209 447.971 134.796 447.729 134.171 447.612C133.555 447.487 132.621 447.425 131.371 447.425H130.646C129.138 447.425 128.03 447.733 127.321 448.35C126.621 448.958 126.271 449.908 126.271 451.2V455.05ZM147.044 457.15C145.444 457.15 144.169 457.008 143.219 456.725C142.278 456.433 141.599 455.954 141.182 455.287C140.774 454.612 140.569 453.7 140.569 452.55V449.925C140.569 448.775 140.774 447.867 141.182 447.2C141.599 446.525 142.278 446.046 143.219 445.762C144.169 445.471 145.444 445.325 147.044 445.325H147.769C149.369 445.325 150.64 445.471 151.582 445.762C152.524 446.054 153.199 446.537 153.607 447.212C154.015 447.879 154.219 448.783 154.219 449.925V451.275H142.669V452.475C142.669 453.208 142.769 453.762 142.969 454.137C143.178 454.504 143.594 454.75 144.219 454.875C144.844 454.992 145.786 455.05 147.044 455.05H150.894C151.286 455.05 151.544 454.979 151.669 454.837C151.803 454.696 151.869 454.417 151.869 454C151.869 453.583 151.961 453.258 152.144 453.025C152.336 452.792 152.599 452.675 152.932 452.675C153.274 452.683 153.532 452.812 153.707 453.062C153.882 453.304 153.969 453.65 153.969 454.1C153.969 454.792 153.865 455.367 153.657 455.825C153.449 456.275 153.128 456.608 152.694 456.825C152.269 457.042 151.728 457.15 151.069 457.15H147.044ZM142.682 449.175H152.107C152.015 448.442 151.719 447.975 151.219 447.775C150.919 447.658 150.474 447.571 149.882 447.512C149.299 447.454 148.594 447.425 147.769 447.425H147.044C146.144 447.425 145.399 447.458 144.807 447.525C144.224 447.583 143.794 447.675 143.519 447.8C143.019 448.008 142.74 448.467 142.682 449.175ZM157.229 457.15V445.325H165.654C167.054 445.325 168.149 445.629 168.941 446.237C169.733 446.837 170.129 447.675 170.129 448.75C170.129 449.292 170.033 449.762 169.841 450.162C169.649 450.562 169.366 450.887 168.991 451.137C169.749 451.754 170.129 452.608 170.129 453.7C170.129 454.417 169.949 455.033 169.591 455.55C169.233 456.067 168.72 456.462 168.054 456.737C167.387 457.012 166.587 457.15 165.654 457.15H157.229ZM159.329 455.05H165.479C167.179 455.05 168.029 454.65 168.029 453.85C168.029 453.208 167.841 452.758 167.466 452.5C167.099 452.233 166.47 452.1 165.579 452.1H159.329V455.05ZM159.329 450H165.579C166.595 450 167.262 449.912 167.579 449.737C167.895 449.554 168.054 449.183 168.054 448.625C168.054 447.825 167.195 447.425 165.479 447.425H159.329V450ZM179.393 457.15C177.793 457.15 176.518 457.008 175.568 456.725C174.626 456.433 173.947 455.954 173.53 455.287C173.122 454.612 172.918 453.7 172.918 452.55V449.925C172.918 448.775 173.122 447.867 173.53 447.2C173.947 446.525 174.626 446.046 175.568 445.762C176.518 445.471 177.793 445.325 179.393 445.325H180.118C181.718 445.325 182.989 445.471 183.93 445.762C184.872 446.054 185.547 446.537 185.955 447.212C186.364 447.879 186.568 448.783 186.568 449.925V451.275H175.018V452.475C175.018 453.208 175.118 453.762 175.318 454.137C175.526 454.504 175.943 454.75 176.568 454.875C177.193 454.992 178.135 455.05 179.393 455.05H183.243C183.635 455.05 183.893 454.979 184.018 454.837C184.151 454.696 184.218 454.417 184.218 454C184.218 453.583 184.31 453.258 184.493 453.025C184.685 452.792 184.947 452.675 185.28 452.675C185.622 452.683 185.88 452.812 186.055 453.062C186.23 453.304 186.318 453.65 186.318 454.1C186.318 454.792 186.214 455.367 186.005 455.825C185.797 456.275 185.476 456.608 185.043 456.825C184.618 457.042 184.076 457.15 183.418 457.15H179.393ZM175.03 449.175H184.455C184.364 448.442 184.068 447.975 183.568 447.775C183.268 447.658 182.822 447.571 182.23 447.512C181.647 447.454 180.943 447.425 180.118 447.425H179.393C178.493 447.425 177.747 447.458 177.155 447.525C176.572 447.583 176.143 447.675 175.868 447.8C175.368 448.008 175.089 448.467 175.03 449.175ZM190.577 461.7C189.894 461.7 189.552 461.275 189.552 460.425V446.35C189.552 445.55 189.91 445.15 190.627 445.15C191.002 445.15 191.26 445.267 191.402 445.5C191.552 445.733 191.627 446.133 191.627 446.7V447.45L191.252 446.95C191.777 446.375 192.44 445.962 193.24 445.712C194.048 445.454 194.977 445.325 196.027 445.325H196.752C198.352 445.325 199.623 445.471 200.565 445.762C201.506 446.054 202.181 446.537 202.59 447.212C202.998 447.879 203.202 448.783 203.202 449.925V452.55C203.202 453.692 202.998 454.6 202.59 455.275C202.181 455.942 201.51 456.421 200.577 456.712C199.652 457.004 198.402 457.15 196.827 457.15H191.652V460.425C191.652 461.275 191.294 461.7 190.577 461.7ZM191.652 455.05H196.827C198.06 455.05 198.981 454.992 199.59 454.875C200.198 454.75 200.602 454.504 200.802 454.137C201.002 453.762 201.102 453.208 201.102 452.475V450C201.102 449.258 200.998 448.704 200.79 448.337C200.59 447.971 200.177 447.729 199.552 447.612C198.935 447.487 198.002 447.425 196.752 447.425H196.027C194.519 447.425 193.41 447.733 192.702 448.35C192.002 448.958 191.652 449.908 191.652 451.2V455.05ZM207.35 457.325C206.65 457.325 206.3 456.925 206.3 456.125V446.375C206.3 445.558 206.634 445.15 207.3 445.15C208.034 445.15 208.4 445.558 208.4 446.375V449.85H216.85V446.375C216.85 445.558 217.2 445.15 217.9 445.15C218.6 445.15 218.95 445.558 218.95 446.375V456.125C218.95 456.925 218.6 457.325 217.9 457.325C217.2 457.325 216.85 456.925 216.85 456.125V451.95H208.4V456.125C208.4 456.925 208.05 457.325 207.35 457.325ZM234.014 457.325C233.314 457.325 232.964 456.892 232.964 456.025V448.3L224.377 457.15H222.414V446.375C222.414 445.558 222.764 445.15 223.464 445.15C224.164 445.15 224.514 445.583 224.514 446.45V454.275L233.177 445.325H235.064V456.1C235.064 456.917 234.714 457.325 234.014 457.325ZM252.363 457.15H248.838C248.18 457.15 247.634 457.042 247.201 456.825C246.776 456.6 246.459 456.258 246.251 455.8C246.042 455.342 245.938 454.767 245.938 454.075C245.938 453.625 246.026 453.279 246.201 453.037C246.384 452.796 246.646 452.675 246.988 452.675C247.321 452.675 247.58 452.792 247.763 453.025C247.946 453.258 248.038 453.583 248.038 454C248.038 454.417 248.105 454.696 248.238 454.837C248.371 454.979 248.63 455.05 249.013 455.05H252.363C253.613 455.05 254.551 454.992 255.176 454.875C255.801 454.75 256.217 454.508 256.426 454.15C256.634 453.792 256.738 453.258 256.738 452.55V452.1H251.538C250.671 452.1 250.238 451.767 250.238 451.1C250.238 450.367 250.671 450 251.538 450H256.738V449.9C256.738 449.192 256.634 448.662 256.426 448.312C256.217 447.954 255.801 447.717 255.176 447.6C254.559 447.483 253.621 447.425 252.363 447.425H249.013C248.63 447.425 248.371 447.5 248.238 447.65C248.105 447.8 248.038 448.083 248.038 448.5C248.038 449.367 247.688 449.8 246.988 449.8C246.288 449.8 245.938 449.333 245.938 448.4C245.938 447.7 246.042 447.125 246.251 446.675C246.459 446.217 246.776 445.879 247.201 445.662C247.634 445.437 248.18 445.325 248.838 445.325H252.363C253.963 445.325 255.234 445.471 256.176 445.762C257.126 446.046 257.805 446.525 258.213 447.2C258.63 447.867 258.838 448.775 258.838 449.925V452.55C258.838 453.7 258.63 454.612 258.213 455.287C257.805 455.954 257.126 456.433 256.176 456.725C255.234 457.008 253.963 457.15 252.363 457.15ZM262.965 457.325C262.657 457.325 262.407 457.217 262.215 457C262.032 456.783 261.94 456.508 261.94 456.175V446.3C261.94 445.95 262.04 445.671 262.24 445.462C262.44 445.254 262.707 445.15 263.04 445.15C263.34 445.15 263.582 445.258 263.765 445.475C263.948 445.683 264.04 445.958 264.04 446.3V450.175H266.44C266.607 450.175 266.807 450.05 267.04 449.8C267.282 449.55 267.623 449.096 268.065 448.437C268.407 447.946 268.794 447.45 269.227 446.95C269.669 446.45 270.232 446.021 270.915 445.662C271.607 445.304 272.373 445.125 273.215 445.125C273.607 445.125 273.919 445.217 274.152 445.4C274.394 445.583 274.515 445.842 274.515 446.175C274.515 446.525 274.402 446.787 274.177 446.962C273.961 447.137 273.64 447.225 273.215 447.225C272.782 447.225 272.357 447.392 271.94 447.725C271.532 448.058 271.032 448.646 270.44 449.487C270.29 449.696 270.144 449.892 270.002 450.075C269.869 450.25 269.74 450.412 269.615 450.562C269.498 450.704 269.382 450.833 269.265 450.95C269.915 451.233 270.502 451.625 271.027 452.125C271.561 452.625 271.919 453.133 272.102 453.65C272.302 454.167 272.498 454.558 272.69 454.825C272.882 455.092 273.057 455.225 273.215 455.225C273.607 455.225 273.919 455.321 274.152 455.512C274.394 455.704 274.515 455.958 274.515 456.275C274.515 456.975 274.082 457.325 273.215 457.325C272.632 457.325 272.127 457.238 271.702 457.063C271.277 456.887 270.94 456.621 270.69 456.262C270.44 455.921 270.236 455.587 270.077 455.262C269.919 454.937 269.736 454.608 269.527 454.275C269.319 453.933 269.015 453.587 268.615 453.237C267.923 452.596 266.732 452.275 265.04 452.275H264.04V456.2C264.04 456.542 263.944 456.812 263.752 457.013C263.561 457.221 263.298 457.325 262.965 457.325ZM278.175 461.7C277.491 461.7 277.15 461.275 277.15 460.425V446.35C277.15 445.55 277.508 445.15 278.225 445.15C278.6 445.15 278.858 445.267 279 445.5C279.15 445.733 279.225 446.133 279.225 446.7V447.45L278.85 446.95C279.375 446.375 280.037 445.962 280.837 445.712C281.646 445.454 282.575 445.325 283.625 445.325H284.35C285.95 445.325 287.221 445.471 288.162 445.762C289.104 446.054 289.779 446.537 290.187 447.212C290.596 447.879 290.8 448.783 290.8 449.925V452.55C290.8 453.692 290.596 454.6 290.187 455.275C289.779 455.942 289.108 456.421 288.175 456.712C287.25 457.004 286 457.15 284.425 457.15H279.25V460.425C279.25 461.275 278.891 461.7 278.175 461.7ZM279.25 455.05H284.425C285.658 455.05 286.579 454.992 287.187 454.875C287.796 454.75 288.2 454.504 288.4 454.137C288.6 453.762 288.7 453.208 288.7 452.475V450C288.7 449.258 288.596 448.704 288.387 448.337C288.187 447.971 287.775 447.729 287.15 447.612C286.533 447.487 285.6 447.425 284.35 447.425H283.625C282.116 447.425 281.008 447.733 280.3 448.35C279.6 448.958 279.25 449.908 279.25 451.2V455.05ZM304.323 457.325C304.115 457.325 303.944 457.263 303.81 457.138C303.677 457.021 303.577 456.767 303.51 456.375C303.452 455.983 303.423 455.383 303.423 454.575L303.698 455.225C303.173 455.95 302.515 456.454 301.723 456.737C300.94 457.012 300.015 457.15 298.948 457.15H296.623C295.715 457.15 294.973 456.85 294.398 456.25C293.831 455.642 293.548 454.725 293.548 453.5C293.548 452.733 293.673 452.087 293.923 451.562C294.173 451.029 294.56 450.6 295.085 450.275C295.61 449.942 296.281 449.7 297.098 449.55C297.915 449.4 298.89 449.325 300.023 449.325H304.248L303.298 450.175V448.325C303.298 447.958 303.235 447.717 303.11 447.6C302.994 447.483 302.731 447.425 302.323 447.425H298.798C297.956 447.425 297.31 447.446 296.86 447.487C296.419 447.529 296.11 447.612 295.935 447.737C295.76 447.854 295.665 448.025 295.648 448.25C295.615 448.683 295.535 449.004 295.41 449.212C295.285 449.421 295.015 449.525 294.598 449.525C293.898 449.525 293.548 449.075 293.548 448.175C293.548 447.183 293.96 446.462 294.785 446.012C295.61 445.554 296.89 445.325 298.623 445.325H302.498C303.565 445.325 304.315 445.579 304.748 446.087C305.181 446.596 305.398 447.475 305.398 448.725V456.125C305.398 456.925 305.04 457.325 304.323 457.325ZM296.698 455.15H298.948C300.523 455.15 301.64 454.833 302.298 454.2C302.965 453.558 303.298 452.55 303.298 451.175L303.448 451.325H300.023C298.923 451.325 298.052 451.379 297.41 451.487C296.777 451.587 296.323 451.787 296.048 452.087C295.781 452.387 295.648 452.833 295.648 453.425C295.648 453.958 295.74 454.379 295.923 454.687C296.115 454.996 296.373 455.15 296.698 455.15ZM309.792 457.325C309.092 457.325 308.742 456.925 308.742 456.125V446.375C308.742 445.558 309.075 445.15 309.742 445.15C310.475 445.15 310.842 445.558 310.842 446.375V449.85H319.292V446.375C319.292 445.558 319.642 445.15 320.342 445.15C321.042 445.15 321.392 445.558 321.392 446.375V456.125C321.392 456.925 321.042 457.325 320.342 457.325C319.642 457.325 319.292 456.925 319.292 456.125V451.95H310.842V456.125C310.842 456.925 310.492 457.325 309.792 457.325Z" fill="white"/>
</g>
<defs>
<clipPath id="clip0_639_128">
<rect width="414" height="896" fill="white"/>
</clipPath>
</defs>
</svg>
